<svg xmlns="http://www.w3.org/2000/svg" viewBox="-3704 -9013 32 24">
  <defs>
    <style>
      .cls-1 {
        fill: #fff;
      }
    </style>
  </defs>
  <path id="credit-card" class="cls-1" d="M29,4H3A3.009,3.009,0,0,0,0,7V25a3.009,3.009,0,0,0,3,3H29a3.009,3.009,0,0,0,3-3V7A3.009,3.009,0,0,0,29,4ZM3,6H29a1.013,1.013,0,0,1,1,1v3H2V7A1.013,1.013,0,0,1,3,6ZM29,26H3a1.013,1.013,0,0,1-1-1V16H30v9A1.013,1.013,0,0,1,29,26ZM4,20H6v4H4Zm4,0h2v4H8Zm4,0h2v4H12Z" transform="translate(-3704 -9017)"/>
</svg>
