<?xml version="1.0" encoding="utf-8"?>
<!-- Generator: Adobe Illustrator 16.0.5, SVG Export Plug-In . SVG Version: 6.00 Build 0)  -->
<!DOCTYPE svg PUBLIC "-//W3C//DTD SVG 1.1//EN" "http://www.w3.org/Graphics/SVG/1.1/DTD/svg11.dtd">
<svg version="1.1" id="Layer_1" xmlns="http://www.w3.org/2000/svg" xmlns:xlink="http://www.w3.org/1999/xlink" x="0px" y="0px"
	 width="298px" height="195px" viewBox="0 0 298 195" enable-background="new 0 0 298 195" xml:space="preserve">
<rect fill="#F3F0EA" width="298" height="195"/>
<polygon fill="#D1C9BF" points="236.176,58.423 271.288,65.63 275.609,44.578 246.252,38.552 233.945,45.494 "/>
<rect x="225.418" y="46.827" transform="matrix(-0.9796 -0.2011 0.2011 -0.9796 477.7089 168.5437)" fill="#FAF7F5" width="43.993" height="26.363"/>
<path fill="#D1C9BF" d="M169.215,97.395c-0.166,0.807,0.358,1.603,1.166,1.767l89.25,18.323c0.807,0.164,1.602-0.359,1.768-1.166
	l11.553-56.275c0.165-0.807-0.358-1.603-1.166-1.767l-26.342-5.408c-0.807-0.165-1.83-0.867-2.272-1.559l-3.709-5.774
	c-0.442-0.693-1.47-1.395-2.274-1.56l-53.232-10.93c-0.805-0.165-1.602,0.36-1.766,1.166L169.215,97.395z"/>
<polygon fill="#D1C9BF" points="33.91,34.803 37.239,51.7 21.816,57.056 47.638,131.418 110.934,109.438 107.79,100.387 
	113.493,99.26 98.29,22.113 "/>
<polygon fill="#F3F0EA" points="65.29,60.411 59.473,61.604 53.608,62.804 51.064,50.36 46.182,51.361 57.684,34.271 64.019,38.367 
	63.499,35.829 67.744,34.957 69.115,41.667 74.979,45.461 70.097,46.462 70.291,47.405 72.648,58.902 "/>
<polygon fill="#F3F0EA" points="23.368,57.805 37.478,52.905 49.115,111.95 106.58,100.625 109.379,108.688 48.392,129.867 "/>
<polygon fill="#F3F0EA" points="51.775,77.025 50.621,71.185 83.434,64.721 84.592,70.557 "/>
<polygon fill="#F3F0EA" points="53.758,88.654 52.608,82.81 92.241,74.997 93.405,80.841 "/>
<polygon fill="#F3F0EA" points="56.182,99.598 55.028,93.754 80.3,88.777 81.465,94.622 "/>
<rect x="103.605" y="98.221" fill="#66574A" width="73.9" height="96.779"/>
<path fill="#ADC275" d="M110.678,118.514l-0.003,65.68h58.849l0.31-65.061c-0.435-11.561-1.67-28.851-5.138-36.692
	c-5.778-2.231-13.495-3.029-23.469-3.817c-13.291-1.052-18.459,2.552-24.917,3.75C116.309,82.373,110.678,99.145,110.678,118.514"/>
<path fill="#996338" d="M149.945,59.851h-16.959l0.035,18.803c0.18,4.522,3.879,12.739,8.443,12.739
	c4.567,0,8.265-7.934,8.446-12.454L149.945,59.851z"/>
<path fill="#784F2B" d="M132.985,59.851l0.033,17.952c2.421,1.138,5.319,1.649,8.706,1.649c3.32,0,6.004-0.926,8.188-2.398
	l0.033-17.203H132.985z"/>
<path fill="#996338" d="M159.279,52.289c0,0-0.625,23.832-17.555,23.832c-11.868,0-17.748-6.266-18.059-23.832
	c-0.311-17.701,3.911-29.57,17.791-29.57C154.16,22.719,159.279,36.551,159.279,52.289"/>
<path fill="#784F2B" d="M138.218,60.123h6.812C145.03,60.123,142.285,63.595,138.218,60.123"/>
<path fill="#784F2B" d="M132.953,30.859l-1.93-4.766c-5.662,4.719-7.573,14.093-7.358,26.196
	c0.249,13.96,4.016,20.778,11.507,22.992C118.641,64.102,132.953,30.859,132.953,30.859"/>
<path fill="#212121" d="M155.182,31.682c-2.863-5.481-7.334-8.985-13.726-8.985c-7.204,0-11.805,3.207-14.521,8.763
	c3.326,1.899,8.497,3.128,14.322,3.128C146.849,34.587,151.848,33.456,155.182,31.682"/>
<path fill="#212121" d="M126.935,31.459c-2.244,4.586-3.199,10.78-3.275,18.1c0.607-4.957,2.323-10.967,6.505-16.677
	C128.962,32.467,127.869,31.993,126.935,31.459"/>
<path fill="#212121" d="M151.744,33.082c4.74,6.496,6.705,12.461,7.484,16.776c-0.236-6.912-1.512-13.321-4.047-18.177
	C154.182,32.213,153.018,32.68,151.744,33.082"/>
<path fill="#8C9C42" d="M164.979,128.54c-27.51-5.024-40.188,0.237-40.188,0.237s28.707,0.576,35.405,7.754
	c6.509,6.977-6.062,17.727,5.076,47.66h4.252l0.31-65.059c-0.123-3.246-0.306-6.879-0.588-10.703
	C165.589,111.139,164.979,128.54,164.979,128.54"/>
<rect y="186.887" fill="#66574A" width="7.072" height="8.113"/>
<rect x="270.098" y="186.887" fill="#66574A" width="14.387" height="8.113"/>
<rect y="186.887" fill="#968270" width="298" height="8.113"/>
<rect y="179.805" fill="#66574A" width="298" height="7.082"/>
<polygon fill="#968270" points="0,151.7 0,179.805 74.488,179.805 108.794,179.805 298,179.805 298,154.316 292.887,151.7 "/>
<rect y="186.887" fill="#806B57" width="298" height="8.113"/>
<path fill="#574538" d="M0,186.887h298H0z"/>
<path fill="#ADC275" d="M120.858,83.162c0,0,4.994,10.184-6.871,32.752c-11.865,22.566-22.111,42.828-30.705,40.088
	c-8.592-2.738,7.25-36.816,10.579-44.775C97.188,103.266,110.489,77.117,120.858,83.162"/>
<path fill="#ADC275" d="M117.354,160.643c0,0-9.247-0.224-17.973-0.224c-8.197,0-18.618-1.812-17.941-9.978
	c0.676-8.166,8.616-6.352,8.616-6.352c8.852,0.814,27.725,6.901,27.725,6.901s7.541,1.019,7.399,5.38
	C125.04,161.752,117.354,160.643,117.354,160.643"/>
<path fill="#59595C" d="M126.658,156.346c-0.396-0.367-0.417-0.986-0.052-1.383l15.107-16.268c0.369-0.397,0.989-0.42,1.382-0.053
	c0.398,0.365,0.422,0.985,0.054,1.383l-15.107,16.269C127.675,156.689,127.055,156.715,126.658,156.346"/>
<path fill="#996338" d="M126.412,160.988c1.645-0.368,4.792-1.863,6.803-7.678c2.193,2.362,2.797,1.033,2.797,1.033
	c2.12-5.963-7.038-8.746-9.658-8.439c-2.621,0.308-10.082,7.632-10.552,11.18c0,0-0.156,3.242,3.463,5.617
	C122.883,165.076,126.412,160.988,126.412,160.988"/>
<path fill="#996338" d="M163.467,154.096c0,0-2.021-3.48-14.076-3.014c-12.057,0.47-16.271,10.402-16.271,10.402
	s-0.103,1.608,9.075-3.359c3.913-2.119,10.521,7.243,21.595,0.207L163.467,154.096z"/>
<path fill="#ADC275" d="M160.262,83.243c0,0-5.096,9.882,6.77,32.448c11.865,22.569,22.111,42.83,30.705,40.092
	c8.593-2.738-7.25-36.818-10.579-44.778C183.828,103.043,170.629,77.201,160.262,83.243"/>
<path fill="#FAD17D" d="M172.779,173.163c0.412,0.043,0.773,0.235,0.805,0.43l1.387,7.705c0.041,0.192-0.318,0.371-0.799,0.396
	l-10.883,0.539c-0.486,0.023-0.895-0.114-0.906-0.306l-0.188-6.284c0-0.192,0.236-0.482,0.525-0.646l3.705-2.146
	c0.273-0.164,0.826-0.264,1.232-0.221L172.779,173.163z"/>
<polygon fill="#FAF7F5" points="179.445,170.335 182.109,180.688 166.832,181.466 166.134,171.199 "/>
<path fill="#FAD17D" d="M193.609,157.846c0.33-0.029,0.668,0.104,0.752,0.301l10.953,21.682c0.115,0.195-0.17,0.376-0.631,0.402
	l-33.015,1.707c-0.483,0.022-0.903-0.113-0.937-0.309l-0.842-6.293c-0.021-0.191-0.309-0.445-0.638-0.561l-2.698-0.965
	c-0.318-0.115-0.586-0.365-0.594-0.56l0.121-12.637c0.012-0.191,0.311-0.371,0.666-0.402L193.609,157.846z"/>
<path fill="#FAD17D" d="M212.1,169.234c0.436-0.015,0.918,0.121,1.078,0.3l7.014,7.123c0.191,0.179-0.008,0.39-0.44,0.47
	l-9.976,1.762c-0.452,0.079-0.967-0.004-1.141-0.181l-5.238-5.829c-0.148-0.177-0.131-0.475,0.037-0.661l2.15-2.463
	c0.158-0.187,0.645-0.348,1.078-0.362L212.1,169.234z"/>
<polygon fill="#FAF7F5" points="216.768,165.688 226.404,175.234 212.559,177.762 204.141,168.264 "/>
<path fill="#FAD17D" d="M224.254,151.602c0.305-0.086,0.676-0.009,0.828,0.17l21.572,19.838c0.236,0.181,0.117,0.396-0.269,0.477
	l-28.812,5.562c-0.438,0.078-0.953-0.004-1.139-0.184l-5.642-5.826c-0.159-0.179-0.623-0.379-1.028-0.445l-3.367-0.56
	c-0.4-0.065-0.848-0.266-0.992-0.442l-7.875-11.637c-0.094-0.175,0.129-0.385,0.494-0.467L224.254,151.602z"/>
<path fill="#ADC275" d="M163.663,160.42c0,0,9.248-0.223,17.974-0.223c8.197,0,18.619-1.807,17.941-9.978
	c-0.678-8.167-8.617-6.351-8.617-6.351c-8.852,0.814-27.725,6.9-27.725,6.9s-3.285,0.897-3.146,5.26
	C160.23,161.41,163.663,160.42,163.663,160.42"/>
<path fill="#784F2B" d="M151.369,50.664c0,1.151-0.648,2.086-1.448,2.086s-1.449-0.935-1.449-2.086c0-1.148,0.649-2.085,1.449-2.085
	S151.369,49.516,151.369,50.664"/>
<path fill="#784F2B" d="M135.492,50.664c0,1.151-0.648,2.086-1.448,2.086c-0.799,0-1.446-0.935-1.446-2.086
	c0-1.148,0.647-2.085,1.446-2.085C134.844,48.579,135.492,49.516,135.492,50.664"/>
<polygon fill="#784F2B" points="136.556,46.198 127.764,45.979 129.902,44.622 135.421,45.448 "/>
<polygon fill="#784F2B" points="145.704,46.198 154.494,45.979 152.359,44.622 146.838,45.448 "/>
<path fill="#784F2B" d="M136.405,67.223h11.627c0,0-1.543,3.397-5.764,3.397C137.916,70.62,136.405,67.223,136.405,67.223"/>
<polygon fill="#333333" points="90.777,179.061 43.418,161.807 43.418,139.102 108.685,164.247 107.124,166.8 "/>
<polygon fill="#4D4D4D" points="88.076,178.073 43.418,161.807 43.418,139.102 108.391,164.303 "/>
<polygon fill="#1A1A1A" points="81.378,175.143 43.417,161.322 43.417,142.033 98.627,163.443 "/>
<polygon fill="#333333" points="91.417,179.061 43.417,161.807 43.417,126.387 91.417,133.652 "/>
<path fill="#1A1A1A" d="M68.434,149.999c0,2.634-1.499,4.769-3.349,4.769s-3.349-2.135-3.349-4.769s1.499-4.769,3.349-4.769
	S68.434,147.365,68.434,149.999"/>
</svg>
