<svg xmlns="http://www.w3.org/2000/svg" viewBox="-3704 -9079 28 28">
  <defs>
    <style>
      .cls-1 {
        fill: #fff;
      }
    </style>
  </defs>
  <g id="plus-circle" transform="translate(-3705 -9080)">
    <path id="Path_4" data-name="Path 4" class="cls-1" d="M15,1A14,14,0,1,0,29,15,13.96,13.96,0,0,0,15,1Zm0,25.455A11.455,11.455,0,1,1,26.455,15,11.407,11.407,0,0,1,15,26.455Z" transform="translate(0 0)"/>
    <path id="Path_5" data-name="Path 5" class="cls-1" d="M18.455,12.091H14.636V8.273A1.2,1.2,0,0,0,13.364,7a1.2,1.2,0,0,0-1.273,1.273v3.818H8.273A1.2,1.2,0,0,0,7,13.364a1.2,1.2,0,0,0,1.273,1.273h3.818v3.818a1.2,1.2,0,0,0,1.273,1.273,1.2,1.2,0,0,0,1.273-1.273V14.636h3.818a1.2,1.2,0,0,0,1.273-1.273A1.2,1.2,0,0,0,18.455,12.091Z" transform="translate(1.636 1.636)"/>
  </g>
</svg>
