<svg xmlns="http://www.w3.org/2000/svg" viewBox="-3704 -9143 28 28">
  <defs>
    <style>
      .cls-1 {
        fill: #fff;
      }
    </style>
  </defs>
  <path id="registered" class="cls-1" d="M16.281,10.984a1.976,1.976,0,0,0-.938-1.891,3.7,3.7,0,0,0-1.828-.281H11.593V13.2h2.531a1.991,1.991,0,0,0,2.156-2.219Zm.813,4.453,3.2,5.828a.486.486,0,0,1-.016.484.474.474,0,0,1-.422.25H17.484a.469.469,0,0,1-.438-.266l-3.031-5.7H11.593V21.5a.494.494,0,0,1-.5.5H9a.494.494,0,0,1-.5-.5V6.5A.494.494,0,0,1,9,6h4.594a7.826,7.826,0,0,1,2.969.375,4.6,4.6,0,0,1,2.859,4.516,4.663,4.663,0,0,1-2.469,4.3c.047.078.094.156.141.25ZM14,2.5A11.5,11.5,0,1,0,25.5,14,11.509,11.509,0,0,0,14,2.5ZM28,14A14,14,0,1,1,14,0h0A14,14,0,0,1,28,14Z" transform="translate(-3704 -9143)"/>
</svg>
